<svg version="1" xmlns="http://www.w3.org/2000/svg" width="682.667" height="682.667" viewBox="0 0 512.000000 512.000000"><path d="M300.5 143c-1.7 1.8-1.7 2.1-.1 4.5 1.3 2 2.2 2.4 3.9 1.9 4.2-1.3 4.9-4.5 1.5-6.8-2.9-2-3.1-2-5.3.4zM354.5 175.9c-5.5 2.5-9.3 6.3-11.6 11.7-1.6 3.4-2.5 4.4-3.7 4-1-.3-4.9-1.7-8.8-3-18.2-6.5-37.9-2.8-52.7 9.6-3.5 2.9-5.5 3.9-7.2 3.5-3.6-.6-6.2 2.6-4.6 5.6 1.1 2 .9 2.9-.8 5.8-3 5.1-5.7 13.5-6.5 20.2-.6 4.5-1.1 5.7-2.2 5.3-2.3-.9-4.4.5-4.4 2.9s2.1 3.8 4.5 2.9c1-.4 1.6.3 2 2.3 2 9.2 2.8 12.1 5.2 16.7 7.5 15 21.1 25.9 36.7 29.2 12.5 2.7 25.5 1.2 36.1-4.2 6.5-3.2 6.9-3.3 10.3-1.8 10.7 4.4 23.2.2 28.2-9.6 4.5-8.9 3.3-17.2-3.6-24.9-4.2-4.7-4.4-5.2-4.4-11.2 0-3.5-.7-9.5-1.5-13.4-.8-3.8-1.5-7.3-1.5-7.7 0-.4 2.5-1.4 5.5-2.3 11.4-3.3 17.9-14.3 15.5-26.1-2.8-13.5-18.1-21.2-30.5-15.5zm-46 37.1c-.3.5-1.6 1-2.8 1-1.8 0-1.9-.2-.7-1 2-1.3 4.3-1.3 3.5 0zm32.5 0c0 .5-1 1-2.2 1-1.9 0-2-.2-.8-1 1.9-1.3 3-1.3 3 0zm-42.8 6.9c-.9 1.6-1.8 2.8-2.1 2.6-.4-.5 2.7-5.5 3.4-5.5.2 0-.4 1.3-1.3 2.9zm26.8 9c-.7 1.4-2 2.1-3.8 2-2.3-.2-2.4-.2-.4-.6 1.2-.2 2.7-1.3 3.3-2.5.6-1.1 1.3-1.7 1.6-1.5.2.3 0 1.5-.7 2.6zm22.7-.3c-.3.3-1.2.4-1.9.1-.8-.3-.5-.6.6-.6 1.1-.1 1.7.2 1.3.5zM309 230c-2 1.3-4.3 1.3-3.5 0 .3-.6 1.6-1 2.8-1 1.8 0 1.9.2.7 1zm26.3 8c-.5 1.9-2.3 3.9-2.3 2.5 0-.9 2-4.5 2.4-4.5.2 0 .2.9-.1 2zM300 262c0 .5-.7 1-1.6 1-.8 0-1.2-.5-.9-1 .3-.6 1-1 1.6-1 .5 0 .9.4.9 1zM142.9 182.7c-2.4.3-4.6 1.5-6.5 3.4l-2.9 3v95.1l2.8 2.4c6.4 5.5 13.8 2.1 19.1-8.8 7.3-15.3 8.6-18.2 8.6-19.7 0-1.7 4.2-10.1 5-10.1.3 0 1.7 2 3.2 4.5 3.8 6.2 7.9 6.9 14.4 2.5 5.1-3.4 6.9-2.9 6 2-1.1 6.4 6.5 13.7 11.7 11.3 1.2-.6 3.3-1.6 4.7-2.2 5.4-2.4 12.5-7 14.2-9.1 5.2-6.4-3.3-13.9-10.1-9.1-4.5 3.2-6.1 2.8-6.1-1.7.1-8.4 1.9-22.2 3.6-27 1.6-4.4 1.6-5.4.4-7.7-1.7-3.1-5.1-4.1-8.8-2.6-1.9.8-3.6 3-5.6 7.4-3.4 7.5-11.7 21.7-12.7 21.7-1.4 0-1.5-4-.2-19 .7-8.5 1.1-16.1.8-16.8-.2-.7-2.1-2-4-2.8-5.3-2.2-7.1-.7-11.5 10.1-.7 1.6-1.8 4.3-2.5 6-.7 1.6-1.7 4.1-2.3 5.5-.5 1.4-1.6 4.1-2.4 6-.9 1.9-1.9 5.1-2.3 7-.4 1.9-1.3 4.2-2 5-.7.8-2.5 4.6-4 8.5-4.3 11.2-4.4 11.5-5.5 11.5-.6 0-1-11.3-1.2-31-.3-26.9-.1-31.1 1.2-31.5.8-.2 19.3-.7 41-1l39.5-.6-.3 39.3c-.2 24-.7 39.7-1.3 40.3-.5.5-12.4 1-29.5 1.1-31.9.3-32.4.4-32.4 7 0 6.3.6 6.4 36.3 6.4 30.7 0 32-.1 34.8-2.1 6-4.2 5.9-3.7 5.9-51.3 0-40.5-.5-48.6-2.7-48.6-.5 0-.7 21.1-.5 46.9l.3 46.9-3.8 3.1-3.8 3.1h-29.8c-18.6 0-30.6-.4-31.8-1-1.9-1.1-2.5-4.5-1.1-6.6.5-.8 9.5-1.1 30.5-1 26 .2 29.9 0 30.6-1.4.4-.8.8-20 1-42.5l.2-41-43.5-.3-43.6-.3V231c0 36.4.1 38 1.9 38 1.3 0 2.3-1.4 3.5-4.8 1-2.6 2.2-5.8 2.8-7.2.7-1.4 1.1-2.8 1-3.3-.1-.4.2-.7.8-.7.5 0 1-.6 1-1.4 0-.7.7-3 1.5-5s1.5-3.8 1.5-4.1c0-.3 1.4-3.1 3-6.4 1.7-3.2 3-6.5 3-7.3 0-.8.7-2.3 1.5-3.4.8-1 1.5-2.5 1.5-3.2 0-.8.6-2.8 1.4-4.5.7-1.8 2.4-5.7 3.7-8.7 3.1-7.4 3.8-8.2 6.8-7.8 2.5.3 2.6.6 2.6 5.8-.1 3-.4 12.1-.9 20.2-.4 8.2-.4 15.8-.1 16.9.7 2.1.9 2 3.6-1.2 1.6-1.9 2.9-3.7 2.9-4.1 0-.4 1.7-3.1 3.8-6.1 2-3 5.3-8.7 7.2-12.8 5-10.5 6.2-11.5 9.5-7.9 1.8 2 1.8 2.6-.5 10.5-.6 2.2-1.5 8-2 13-.5 4.9-1.2 11.6-1.6 14.7-.4 3.9-.3 5.8.4 5.8.6 0 1.4-.5 1.7-1 .4-.6 1.1-.8 1.6-.5.5.4 2.9-.8 5.3-2.4 4.9-3.4 8.1-3.9 9-1.5.8 2.2-.4 6.4-1.9 6.4-.6 0-2.3 1-3.7 2.2-6.5 5.9-15.3 7.8-18.8 4-1.1-1.2-1.8-2.2-1.5-2.2.3 0 .2-.8-.3-1.8-.5-.9-.6-4.2-.2-7.2 1.1-7.8-.2-8.4-5.4-2.7-2.4 2.6-4.8 4.8-5.2 4.8-.5.1-2.6.3-4.7.4-3.7.2-3.9 0-6.3-4.8-1.3-2.8-2.4-6.1-2.4-7.4 0-4.9-3.8-.1-5.5 6.9-.4 1.5-1.3 3.2-2.1 3.9-.8.6-1.4 2-1.4 3s-1.1 3.8-2.5 6.3-2.5 5.4-2.5 6.5c0 1.2-.4 2.1-.9 2.1s-1.1 1.4-1.5 3c-.3 1.7-2.2 5.1-4.2 7.5-5.4 6.4-10.9 7.2-13.3 1.7-1.7-3.7-2.5-88.6-.9-92.9.6-1.6 2.2-3.4 3.6-4.1 3-1.4 94.2-1.8 94.2-.4 0 .5.7.9 1.5.9 2.3 0 1.8-2.7-.7-3.6-2.3-.8-85.1-1.2-91.9-.4z"/><path d="M374.1 231.4c-.9 1-.8 1.6.3 2.6 1.9 1.5 3.6.5 3.6-2.1 0-2.2-2.2-2.5-3.9-.5zM392.7 243.7c-1.4 1.3-.6 3.3 1.3 3.3 1.3 0 2-.7 2-2 0-1.9-2-2.7-3.3-1.3zM259 287c0 .5.5 1 1 1 .6 0 1-.5 1-1 0-.6-.4-1-1-1-.5 0-1 .4-1 1zM133.6 306.6c-.4.9-.4 1.9-.2 2.1.8.8 2.6-.8 2.6-2.3 0-1.9-1.6-1.8-2.4.2zM140 305.9c0 .6-.7.8-1.7.4-1.3-.5-1.5-.2-1.1 1.5.4 1.5.2 2.2-.8 2.2-.8 0-1.4.6-1.4 1.4 0 2.1 3.4 1.2 3.9-1 .2-1 1-2.4 1.9-3 1.1-.8 1.2-1.3.4-1.8-.7-.4-1.2-.3-1.2.3zM144.6 306.7c-.2 1-.8 2.9-1.2 4.3l-.7 2.5 2.2-1.9c3.2-2.9 5.3-3 4.6-.3-.6 2.1-.6 2.2.9.3.9-1.1 1.6-3.1 1.5-4.5 0-1.4-.3-2-.6-1.4-.6 1.5-4.3 1.7-4.3.3 0-1.7-1.8-1.1-2.4.7zM157.6 306.2c-1.5 4.9-1.4 5.8.7 5.7 1.2 0 1.7-.3 1-.5-.8-.4-.9-1.3-.3-2.9.6-1.5.6-2.7 0-3-.6-.4-1.2 0-1.4.7zM168 306.3c0 .8-1.1 2-2.5 2.7-3.1 1.6-3.2 2.6-.4 3.3 1.7.5 2 .2 1.6-1.3-.3-1.2 0-1.7.8-1.4 1.3.5 2.8-1.1 3.1-3.4.1-.6-.4-1.2-1.2-1.2-.8 0-1.4.6-1.4 1.3zM154.5 307c-.3.5-.1 1 .4 1 .6 0 1.1-.5 1.1-1 0-.6-.2-1-.4-1-.3 0-.8.4-1.1 1zM327.8 308.1c-2.1 1.2-2.4 5.9-.6 7.7 1.8 1.8 5.3 1.4 7.4-.9 1.7-1.9 1.7-2.3.3-4.7-1.6-2.9-4.4-3.8-7.1-2.1zM169 311.5c-.8.9-.8 1.5-.2 1.5 1.2 0 2.6-1.9 1.9-2.6-.2-.2-1 .2-1.7 1.1zM192 315c-1.3.8-1.2 1 .3 1 .9 0 1.7-.5 1.7-1 0-1.2-.1-1.2-2 0zM212.5 315.6c-1.2 1.2-1.3 1.9-.4 3 1.5 1.8.2 3.6-2.2 2.9-1.1-.4-1.9-.2-1.9.5 0 .8-.6.7-2.2-.1-1.8-.9-2.1-.9-1.1.1.6.7 2.6 1.4 4.5 1.6 1.8.2 4 .6 4.9.9 1.2.4 1.6-.2 1.6-2.5 0-1.6-.5-3-1.1-3-.6 0-.4-.5.4-1 .9-.6 1.1-1 .3-1-.7 0-1-.7-.7-1.5.8-1.9-.1-1.9-2.1.1zM202.5 317.1c-.4 1.2-1.6 3-2.7 4.1-2.1 2.1-1.7 3.8.5 2 .8-.7 1.6-.9 1.9-.7.3.3 1-1.2 1.6-3.5 1-4.1-.1-5.7-1.3-1.9zM370.4 315.8c-2 1.3-2.5 4.8-.9 6.2 2 1.7 4.5.5 4.5-2.1 0-1.2-.3-1.9-.7-1.5-.5.4-.8 1.2-.8 1.7 0 1.8-2 .9-2.3-1.1-.2-1.3.4-2.3 2-2.9 1.3-.6 1.6-1 .8-1s-2 .3-2.6.7zM376.6 316.2c-1.5 4.7-1.6 6.8-.3 6.8.9 0 1.3-.8 1-2.3-.2-1.2.1-2.9.7-3.7 1.6-2.4 3.2.8 1.8 3.4-1 1.9-.9 1.9.5.8 1.3-1.1 1.6-1 2 .5.4 1.5.5 1.5.6.2 0-.9 1-1.9 2.1-2.2 1.2-.3 2-1.4 2-2.6 0-1.4-.6-2.1-2-2.1-1.1 0-2 .5-2 1.2 0 .9-.3.9-1.2 0-1.6-1.6-4.8-1.5-5.2 0zm9.4.7c0 .6-.4 1.3-1 1.6-.5.3-1-.1-1-.9 0-.9.5-1.6 1-1.6.6 0 1 .4 1 .9zM389.2 318.7c.2 2.6.8 3.8 1.8 3.8 1.7 0 4.4-4.9 3.7-6.8-.2-.7-.9.4-1.4 2.3-1.1 4-2.8 3.8-2.8-.3 0-1.5-.3-2.7-.8-2.7s-.7 1.7-.5 3.7zM191.7 317.7c-.2.5-.1 1.9.3 3.3.6 2.4.7 2.4 1.1-.8.5-2.9-.4-4.4-1.4-2.5zM188.5 321.1c-.9 2.8.1 3.6 1.4 1 .7-1.2.7-2.2.2-2.6-.5-.3-1.3.4-1.6 1.6zM239 329l-152.5.5 153.2.3c101.3.1 153.4-.1 153.8-.8.3-.6 0-.9-.7-.8-.7.2-69.9.5-153.8.8z"/></svg>